<?xml version="1.0" encoding="iso-8859-1"?>
<!-- Generator: Adobe Illustrator 19.0.0, SVG Export Plug-In . SVG Version: 6.00 Build 0)  -->
<svg version="1.1" id="Layer_1" xmlns="http://www.w3.org/2000/svg" xmlns:xlink="http://www.w3.org/1999/xlink" x="0px" y="0px"
	 viewBox="0 0 493.56 493.56" style="enable-background:new 0 0 493.56 493.56;" xml:space="preserve">
<g>
	<g>
		<path d="M138.822,0c-21.26,0-38.56,17.308-38.56,38.564v61.696H38.566c-21.256,0-38.564,17.144-38.564,38.404
			c0,21.268,18.084,38.632,39.348,38.632l-0.784,0.08h100.256c21.26,0,38.552-17.288,38.552-38.564V38.564
			C177.374,17.312,160.082,0,138.822,0z"/>
	</g>
</g>
<g>
	<g>
		<path d="M454.998,100.256h-61.684V38.564C393.314,17.312,376.006,0,354.734,0c-21.252,0-38.552,17.308-38.552,38.564v100.248
			c0,21.272,18.876,38.404,40.14,38.404l-1.584,0.16h100.26c21.264,0,38.556-17.292,38.556-38.564
			C493.554,117.556,476.266,100.256,454.998,100.256z"/>
	</g>
</g>
<g>
	<g>
		<path d="M138.822,316.188H38.566c-21.256,0-38.564,17.144-38.564,38.4c0,21.264,18.084,38.64,39.348,38.64l-0.784,0.076h61.696
			V455c0,21.276,17.3,38.56,38.56,38.56c21.26,0,38.552-17.28,38.552-38.56V354.748C177.374,333.5,160.082,316.188,138.822,316.188z
			"/>
	</g>
</g>
<g>
	<g>
		<path d="M455.002,316.184h-100.26c-21.252,0-38.556,17.308-38.556,38.56v100.248c0.004,21.284,17.3,38.564,38.552,38.564
			c21.268,0,38.58-17.28,38.58-38.56V393.3h61.684c21.264,0,38.556-17.292,38.556-38.556
			C493.558,333.48,476.27,316.184,455.002,316.184z"/>
	</g>
</g>
<g>
</g>
<g>
</g>
<g>
</g>
<g>
</g>
<g>
</g>
<g>
</g>
<g>
</g>
<g>
</g>
<g>
</g>
<g>
</g>
<g>
</g>
<g>
</g>
<g>
</g>
<g>
</g>
<g>
</g>
</svg>
