<?xml version="1.0" encoding="iso-8859-1"?>
<!-- Generator: Adobe Illustrator 19.0.0, SVG Export Plug-In . SVG Version: 6.00 Build 0)  -->
<svg version="1.1" id="Layer_1" xmlns="http://www.w3.org/2000/svg" xmlns:xlink="http://www.w3.org/1999/xlink" x="0px" y="0px"
	 viewBox="0 0 511.756 511.756" style="enable-background:new 0 0 511.756 511.756;" xml:space="preserve">
<g transform="translate(1 1)">
	<g>
		<path style="fill:#E2E3E5;" d="M254.756,380.587c-32.108,0-63.349-13.017-85.912-35.58s-35.58-53.803-35.58-85.912
			s13.017-63.349,35.58-85.912s53.803-35.58,85.912-35.58s63.349,13.017,85.912,35.58c22.563,22.563,35.58,53.803,35.58,85.912
			s-13.017,63.349-35.58,85.912C318.106,367.57,286.865,380.587,254.756,380.587z M254.756,154.96
			c-27.769,0-53.803,10.414-73.763,30.373c-19.092,19.959-30.373,45.993-30.373,73.763s10.414,53.803,30.373,73.763
			c19.959,19.959,45.993,30.373,73.763,30.373s53.803-10.414,73.763-30.373c19.959-19.959,30.373-45.993,30.373-73.763
			s-10.414-53.803-30.373-73.763S282.526,154.96,254.756,154.96z"/>
		<path style="fill:#E2E3E5;" d="M254.756,450.011c-48.597,0-98.061-18.224-135.376-55.539c-73.763-74.63-73.763-196.122,0-270.753
			s195.254-74.631,269.885,0c22.563,22.563,39.051,49.464,47.729,79.837l2.603,10.414l-10.414,0.868
			c-6.075,0.868-11.281,3.471-15.62,6.942c-5.207,5.207-7.81,11.281-7.81,18.224c0,6.942,2.603,13.885,7.81,18.224
			c5.207,5.207,13.017,7.81,20.827,6.942l10.414-0.868l-0.868,10.414c-3.471,44.258-23.431,86.78-54.671,118.02
			C352.817,430.919,303.353,450.011,254.756,450.011z M254.756,85.536c-44.258,0-88.515,16.488-122.359,50.332
			c-67.688,67.688-67.688,177.898,0,245.586s177.898,67.688,245.586,0c26.902-26.902,43.39-60.746,48.597-98.061
			c-9.546-0.868-17.356-5.207-24.298-12.149c-7.81-7.81-13.017-19.092-13.017-30.373c0-11.281,4.339-22.563,13.017-30.373
			c4.339-4.339,9.546-7.81,15.62-10.414c-8.678-23.431-22.563-45.993-40.786-63.349C343.272,102.892,299.014,85.536,254.756,85.536z
			"/>
		<path style="fill:#E2E3E5;" d="M254.756,510.756c-66.82,0-130.169-26.034-177.898-73.763
			c-88.515-88.515-98.061-229.966-23.431-328.895l5.207-6.942l6.942,5.207c10.414,7.81,25.166,6.942,33.844-2.603
			c8.678-8.678,10.414-23.431,2.603-33.844l-5.207-6.942l6.942-5.207c98.929-74.631,240.38-65.085,328.895,23.431l0,0l0,0
			c47.729,47.729,73.763,110.21,73.763,177.898s-26.034,130.169-73.763,177.898S321.577,510.756,254.756,510.756z M62.973,124.587
			C-2.111,216.573,9.17,344.139,89.007,424.845c44.258,44.258,103.268,68.556,165.749,68.556s121.492-24.298,165.749-68.556
			s68.556-103.268,68.556-165.749s-24.298-121.492-68.556-165.749l0,0C340.668,13.509,212.234,2.228,120.248,67.312
			c7.81,16.488,4.339,36.447-8.678,48.597C98.553,128.926,79.462,132.397,62.973,124.587z"/>
	</g>
	<g>
		<path style="fill:#CCCCCC;" d="M456.953,256.492c-13.885,13.885-35.58,13.885-49.464,0c-13.885-13.885-13.885-35.58,0-49.464
			s35.58-13.885,49.464,0S470.838,242.607,456.953,256.492"/>
		<path style="fill:#CCCCCC;" d="M105.495,101.156c-13.885,13.885-35.58,13.885-49.464,0s-13.885-35.58,0-49.464
			s35.58-13.885,49.464,0S119.38,88.139,105.495,101.156"/>
	</g>
	<g>
		<path style="fill:#E2E3E5;" d="M441.333,232.194c0,19.092-9.546,34.712-21.695,34.712c-12.149,0-21.695-15.62-21.695-34.712
			s9.546-34.712,21.695-34.712C431.787,197.482,441.333,213.102,441.333,232.194"/>
		<path style="fill:#E2E3E5;" d="M89.875,76.858c0,19.092-9.546,34.712-21.695,34.712S46.485,95.95,46.485,76.858
			s9.546-34.712,21.695-34.712S89.875,57.767,89.875,76.858"/>
	</g>
	<g>
		<path style="fill:#B6B6B6;" d="M254.756,371.909c-32.108,0-63.349-13.017-85.912-35.58c-22.563-22.563-35.58-53.803-35.58-85.912
			s13.017-63.349,35.58-85.912s53.803-35.58,85.912-35.58s63.349,13.017,85.912,35.58c22.563,22.563,35.58,53.803,35.58,85.912
			s-13.017,63.349-35.58,85.912C318.106,358.892,286.865,371.909,254.756,371.909z M254.756,146.282
			c-27.769,0-53.803,10.414-73.763,30.373c-19.092,19.959-30.373,45.993-30.373,73.763s10.414,53.803,30.373,73.763
			s45.993,30.373,73.763,30.373s53.803-10.414,73.763-30.373s30.373-45.993,30.373-73.763s-10.414-53.803-30.373-73.763
			S282.526,146.282,254.756,146.282z"/>
		<path style="fill:#B6B6B6;" d="M432.655,275.584c-11.281,0-22.563-4.339-30.373-13.017c-7.81-7.81-13.017-19.092-13.017-30.373
			c0-11.281,4.339-22.563,13.017-30.373c8.678-7.81,19.092-13.017,30.373-13.017s22.563,4.339,30.373,13.017
			c16.488,16.488,16.488,44.258,0,61.614l0,0C455.217,271.245,443.936,275.584,432.655,275.584z M432.655,206.16
			c-6.942,0-13.885,2.603-18.224,7.81c-5.207,5.207-7.81,11.281-7.81,18.224s2.603,13.885,7.81,18.224
			c10.414,10.414,26.902,10.414,36.447,0c10.414-10.414,10.414-26.902,0-36.447C446.539,208.763,439.597,206.16,432.655,206.16z
			 M456.953,256.492L456.953,256.492L456.953,256.492z"/>
		<path style="fill:#B6B6B6;" d="M81.197,120.248c-11.281,0-22.563-4.339-30.373-13.017c-16.488-16.488-16.488-44.258,0-61.614
			s44.258-17.356,61.614,0c16.488,16.488,16.488,44.258,0,61.614C103.76,115.909,92.478,120.248,81.197,120.248z M81.197,50.824
			c-6.942,0-13.017,2.603-18.224,7.81c-10.414,10.414-10.414,26.902,0,36.447s26.902,10.414,36.447,0s10.414-26.902,0-36.447
			C94.214,53.428,88.139,50.824,81.197,50.824z"/>
		<path style="fill:#B6B6B6;" d="M254.756,441.333c-48.597,0-98.061-18.224-135.376-55.539c-73.763-74.63-73.763-196.122,0-270.753
			c74.631-74.631,195.254-74.631,269.885,0c22.563,22.563,39.051,49.464,47.729,79.837c0.868,2.603,0,5.207-0.868,6.942
			c-0.868,1.736-3.471,3.471-6.075,3.471c-6.075,0.868-11.281,3.471-15.62,6.942c-5.207,5.207-7.81,11.281-7.81,18.224
			s2.603,13.885,7.81,18.224c5.207,5.207,13.017,7.81,20.827,6.942c2.603,0,5.207,0.868,6.942,2.603s2.603,4.339,2.603,6.942
			c-3.471,44.258-23.431,86.78-54.671,118.02C352.817,422.241,303.353,441.333,254.756,441.333z M254.756,76.858
			c-44.258,0-88.515,16.488-122.359,50.332c-67.688,67.688-67.688,177.898,0,245.586s177.898,67.688,245.586,0
			c26.902-26.902,43.39-60.746,48.597-98.061c-9.546-0.868-17.356-5.207-24.298-12.149c-7.81-7.81-13.017-19.092-13.017-30.373
			c0-11.281,4.339-22.563,13.017-30.373c4.339-4.339,9.546-7.81,15.62-10.414c-8.678-23.431-22.563-45.993-40.786-63.349
			C343.272,94.214,299.014,76.858,254.756,76.858z"/>
		
		<path style="fill:#B6B6B6;" d="M254.756,502.078c-64.217,0-129.302-24.298-177.898-73.763
			C-11.657,339.8-21.203,198.35,53.428,99.421c2.603-3.471,8.678-4.339,12.149-1.736c10.414,7.81,25.166,6.942,33.844-2.603
			s10.414-23.431,2.603-33.844c-2.603-3.471-1.736-9.546,1.736-12.149c98.929-74.631,241.247-65.085,328.895,23.431
			c47.729,47.729,73.763,111.078,73.763,177.898s-26.034,130.169-73.763,177.898C384.058,477.78,318.973,502.078,254.756,502.078z
			 M62.973,115.909C-2.111,207.895,9.17,335.461,89.007,416.167c91.119,91.119,240.38,91.119,331.498,0
			c44.258-44.258,68.556-103.268,68.556-165.749s-24.298-121.492-68.556-165.749C340.668,4.831,212.234-6.45,120.248,58.634
			c7.81,16.488,4.339,36.447-8.678,48.597C98.553,120.248,79.462,123.719,62.973,115.909z"/>
	</g>
</g>
<g>
</g>
<g>
</g>
<g>
</g>
<g>
</g>
<g>
</g>
<g>
</g>
<g>
</g>
<g>
</g>
<g>
</g>
<g>
</g>
<g>
</g>
<g>
</g>
<g>
</g>
<g>
</g>
<g>
</g>
</svg>
